Coordinates
version=1
nRows=54
nColumns=12
inDegrees=yes

Units are S.I. units (second, meters, Newtons, ...)
Angles are in degrees

endheader
time	SC_y	SC_z	SC_x	AC_y	AC_z	AC_x	GH_y	GH_z	GH_yy	EL_x	PS_y
       0.0              -23.94          30.09          65.76          30.11         -18.29         -11.87         -168.9           74.1         -165.8          137.9          126.6
   0.01436              -23.94          30.09          65.75          30.11         -18.29         -11.86         -168.9          74.08         -165.8          137.9          126.5
   0.02872              -23.94          30.09          65.74          30.11         -18.29         -11.86         -168.9          74.07         -165.8          137.8          126.5
   0.04309              -23.95          30.09          65.74          30.11         -18.28         -11.86         -168.8          74.06         -165.8          137.8          126.5
   0.05745              -23.95          30.09          65.73          30.11         -18.28         -11.85         -168.8          74.04         -165.8          137.8          126.5
   0.07181              -23.95          30.09          65.72          30.11         -18.27         -11.85         -168.8          74.02         -165.7          137.8          126.5
   0.08617              -23.96          30.09          65.71          30.12         -18.27         -11.85         -168.7          74.01         -165.7          137.8          126.5
    0.1005              -23.96          30.08           65.7          30.12         -18.26         -11.84         -168.7          73.99         -165.7          137.8          126.4
    0.1149              -23.97          30.08          65.69          30.12         -18.26         -11.84         -168.7          73.97         -165.7          137.8          126.4
    0.1293              -23.97          30.08          65.68          30.12         -18.25         -11.83         -168.6          73.95         -165.6          137.7          126.4
    0.1436              -23.98          30.08          65.67          30.12         -18.25         -11.83         -168.6          73.93         -165.6          137.7          126.4
     0.158              -23.98          30.08          65.65          30.13         -18.24         -11.82         -168.6           73.9         -165.6          137.7          126.3
    0.1723              -23.99          30.08          65.64          30.13         -18.23         -11.82         -168.5          73.88         -165.5          137.7          126.3
    0.1867              -23.99          30.08          65.62          30.13         -18.22         -11.81         -168.5          73.85         -165.5          137.6          126.3
    0.2011               -24.0          30.07          65.61          30.14         -18.22          -11.8         -168.4          73.82         -165.4          137.6          126.2
    0.2154              -24.01          30.07          65.59          30.14         -18.21          -11.8         -168.3          73.78         -165.4          137.6          126.2
    0.2298              -24.02          30.07          65.57          30.14          -18.2         -11.79         -168.3          73.75         -165.3          137.5          126.1
    0.2442              -24.03          30.07          65.55          30.15         -18.19         -11.78         -168.2          73.71         -165.3          137.5          126.1
    0.2585              -24.04          30.07          65.52          30.15         -18.17         -11.77         -168.1          73.67         -165.2          137.5          126.1
    0.2729              -24.05          30.06           65.5          30.16         -18.16         -11.76         -168.0          73.62         -165.1          137.4          126.0
    0.2872              -24.06          30.06          65.47          30.16         -18.15         -11.75         -168.0          73.57         -165.1          137.4          125.9
    0.3016              -24.07          30.06          65.44          30.17         -18.13         -11.73         -167.9          73.51         -165.0          137.3          125.9
     0.316              -24.08          30.05           65.4          30.18         -18.11         -11.72         -167.7          73.45         -164.9          137.3          125.8
    0.3303               -24.1          30.05          65.37          30.18         -18.09          -11.7         -167.6          73.38         -164.8          137.2          125.7
    0.3447              -24.12          30.05          65.32          30.19         -18.07         -11.68         -167.5           73.3         -164.7          137.1          125.6
    0.3591              -24.14          30.04          65.28           30.2         -18.05         -11.67         -167.3          73.22         -164.5          137.0          125.5
    0.3734              -24.16          30.04          65.23          30.21         -18.02         -11.64         -167.1          73.12         -164.4          136.9          125.4
    0.3878              -24.18          30.03          65.17          30.23         -17.99         -11.62         -167.0          73.01         -164.2          136.8          125.3
    0.4021              -24.21          30.02           65.1          30.24         -17.95         -11.59         -166.7          72.89         -164.0          136.7          125.1
    0.4165              -24.24          30.01          65.02          30.25         -17.92         -11.56         -166.5          72.75         -163.8          136.6          125.0
    0.4309              -24.28          30.01          64.94          30.27         -17.87         -11.52         -166.2          72.59         -163.6          136.4          124.8
    0.4452              -24.32           30.0          64.84          30.29         -17.82         -11.48         -165.9          72.41         -163.3          136.3          124.6
    0.4596              -24.37          29.98          64.72          30.31         -17.76         -11.43         -165.5           72.2         -163.0          136.1          124.3
     0.474              -24.42          29.97          64.59          30.34         -17.69         -11.38         -165.0          71.96         -162.6          135.8          124.0
    0.4883              -24.49          29.95          64.43          30.37         -17.61         -11.31         -164.5          71.67         -162.2          135.6          123.7
    0.5027              -24.57          29.94          64.25          30.41         -17.52         -11.23         -163.9          71.33         -161.7          135.3          123.3
     0.517              -24.66          29.91          64.03          30.45          -17.4         -11.14         -163.2          70.93         -161.1          134.9          122.8
    0.5314              -24.77          29.89          63.77          30.51         -17.27         -11.03         -162.3          70.45         -160.4          134.4          122.3
    0.5458               -24.9          29.85          63.45          30.57         -17.11          -10.9         -161.3          69.87         -159.5          133.9          121.6
    0.5601              -25.06          29.81          63.06          30.65         -16.91         -10.74         -160.0          69.16         -158.5          133.2          120.8
    0.5745              -25.26          29.77          62.58          30.74         -16.66         -10.54         -158.4          68.29         -157.2          132.4          119.7
    0.5889              -25.51          29.71          61.99          30.86         -16.35         -10.29         -156.5           67.2         -155.5          131.3          118.4
    0.6032              -25.82          29.63          61.23          31.02         -15.97         -9.973         -154.0          65.82         -153.5          130.0          116.8
    0.6176              -26.22          29.53          60.28          31.21         -15.47         -9.573         -150.8          64.08         -150.9          128.4          114.8
    0.6319              -26.73          29.41          59.06          31.45         -14.84         -9.061         -146.8          61.84         -147.5          126.3          112.1
    0.6463              -27.38          29.25          57.49          31.77         -14.04         -8.404         -141.6          58.97         -143.3          123.5          108.8
    0.6607              -28.21          29.04          55.48          32.17          -13.0         -7.564         -135.0           55.3         -137.8          120.1          104.5
     0.675              -29.26          28.78          52.96          32.68         -11.71         -6.509         -126.7          50.69         -130.9          115.7          99.04
    0.6894              -30.54          28.47          49.89           33.3         -10.12         -5.223         -116.6          45.07         -122.5          110.4          92.43
    0.7038              -32.02          28.11          46.33          34.01         -8.292         -3.732         -104.8          38.56         -112.8          104.2          84.78
    0.7181              -33.63          27.72          42.47          34.79         -6.307         -2.118          -92.1          31.51         -102.3          97.54          76.49
    0.7325              -35.23          27.32          38.62          35.56         -4.323        -0.5042         -79.39          24.46         -91.75          90.86          68.19
    0.7468              -36.72          26.96          35.06          36.28          -2.49         0.9865         -67.64          17.95         -82.03          84.69          60.54
    0.7612              -37.99          26.65          31.98           36.9        -0.9082          2.273         -57.51          12.33         -73.64          79.37          53.93
